<?xml version="1.0" encoding="utf-8"?>
<svg version="1.1" xmlns:xlink="http://www.w3.org/1999/xlink" width="21px" height="27px" xmlns="http://www.w3.org/2000/svg">
  <defs>
    <mask fill="white" id="clip2">
      <path d="M 0 13.5  C 0 5.94  4.62 0  10.5 0  C 16.38 0  21 5.94  21 13.5  C 21 13.6009015346521  20.9991770111945 13.7015144888138  20.9975390221198 13.8018285915103  C 20.8764514505996 21.217501425989  16.3015210286039 27  10.5 27  C 4.62 27  0 21.06  0 13.5  Z " fill-rule="evenodd" />
    </mask>
  </defs>
  <g transform="matrix(1 0 0 1 -561 -443 )">
    <path d="M 0 13.5  C 0 5.94  4.62 0  10.5 0  C 16.38 0  21 5.94  21 13.5  C 21 13.6009015346521  20.9991770111945 13.7015144888138  20.9975390221198 13.8018285915103  C 20.8764514505996 21.217501425989  16.3015210286039 27  10.5 27  C 4.62 27  0 21.06  0 13.5  Z " fill-rule="nonzero" fill="#ffffff" stroke="none" transform="matrix(1 0 0 1 561 443 )" />
    <path d="M 0 13.5  C 0 5.94  4.62 0  10.5 0  C 16.38 0  21 5.94  21 13.5  C 21 13.6009015346521  20.9991770111945 13.7015144888138  20.9975390221198 13.8018285915103  C 20.8764514505996 21.217501425989  16.3015210286039 27  10.5 27  C 4.62 27  0 21.06  0 13.5  Z " stroke-width="2" stroke="#797979" fill="none" transform="matrix(1 0 0 1 561 443 )" mask="url(#clip2)" />
  </g>
</svg>