<?xml version="1.0" encoding="utf-8"?>
<svg version="1.1" xmlns:xlink="http://www.w3.org/1999/xlink" width="113px" height="29px" xmlns="http://www.w3.org/2000/svg">
  <defs>
    <mask fill="white" id="clip3">
      <path d="M 0 29  L 0 0  L 39.0082191780823 0  L 68.8995748700991 0  L 113 0  L 113 29  L 0 29  Z " fill-rule="evenodd" />
    </mask>
  </defs>
  <g transform="matrix(1 0 0 1 -1215 -98 )">
    <path d="M 0 29  L 0 0  L 39.0082191780823 0  L 68.8995748700991 0  L 113 0  L 113 29  L 0 29  Z " fill-rule="nonzero" fill="#ec808d" stroke="none" transform="matrix(1 0 0 1 1215 98 )" />
    <path d="M 0 29  L 0 0  L 39.0082191780823 0  L 68.8995748700991 0  L 113 0  L 113 29  L 0 29  Z " stroke-width="2" stroke="#797979" fill="none" transform="matrix(1 0 0 1 1215 98 )" mask="url(#clip3)" />
  </g>
</svg>